<mxfile host="app.diagrams.net" modified="2023-06-27T08:33:30.905Z" agent="Mozilla/5.0 (Windows NT 10.0; Win64; x64) AppleWebKit/537.36 (KHTML, like Gecko) Chrome/114.0.0.0 Safari/537.36" etag="blIdF1nQi9-vyqpjGOCk" version="21.5.1" type="device">
  <diagram name="Page-1" id="e7e014a7-5840-1c2e-5031-d8a46d1fe8dd">
    <mxGraphModel dx="924" dy="786" grid="1" gridSize="10" guides="1" tooltips="1" connect="1" arrows="1" fold="1" page="1" pageScale="1" pageWidth="1169" pageHeight="826" background="none" math="0" shadow="0">
      <root>
        <mxCell id="0" />
        <mxCell id="1" parent="0" />
        <mxCell id="OE_oYDEdKzhmFktJ1rzD-41" value="Actor" style="shape=umlActor;verticalLabelPosition=bottom;verticalAlign=top;html=1;" vertex="1" parent="1">
          <mxGeometry x="80" y="60" width="30" height="60" as="geometry" />
        </mxCell>
        <mxCell id="OE_oYDEdKzhmFktJ1rzD-42" value="Use Case" style="ellipse;whiteSpace=wrap;html=1;" vertex="1" parent="1">
          <mxGeometry x="160" y="60" width="140" height="70" as="geometry" />
        </mxCell>
        <mxCell id="OE_oYDEdKzhmFktJ1rzD-43" value="" style="endArrow=open;endFill=1;endSize=12;html=1;rounded=0;" edge="1" parent="1">
          <mxGeometry width="160" relative="1" as="geometry">
            <mxPoint x="70" y="190" as="sourcePoint" />
            <mxPoint x="230" y="190" as="targetPoint" />
          </mxGeometry>
        </mxCell>
        <mxCell id="OE_oYDEdKzhmFktJ1rzD-45" value="&amp;lt;&amp;lt; include &amp;gt;&amp;gt;" style="endArrow=open;endSize=12;dashed=1;html=1;rounded=0;" edge="1" parent="1">
          <mxGeometry y="10" width="160" relative="1" as="geometry">
            <mxPoint x="70" y="240" as="sourcePoint" />
            <mxPoint x="230" y="240" as="targetPoint" />
            <mxPoint as="offset" />
          </mxGeometry>
        </mxCell>
        <mxCell id="OE_oYDEdKzhmFktJ1rzD-46" value="&amp;lt;&amp;lt; extend &amp;gt;&amp;gt;" style="endArrow=open;endSize=12;dashed=1;html=1;rounded=0;" edge="1" parent="1">
          <mxGeometry y="10" width="160" relative="1" as="geometry">
            <mxPoint x="70" y="290" as="sourcePoint" />
            <mxPoint x="230" y="290" as="targetPoint" />
            <mxPoint as="offset" />
          </mxGeometry>
        </mxCell>
        <mxCell id="OE_oYDEdKzhmFktJ1rzD-47" value="" style="endArrow=block;endSize=16;endFill=0;html=1;rounded=0;" edge="1" parent="1">
          <mxGeometry width="160" relative="1" as="geometry">
            <mxPoint x="70" y="340" as="sourcePoint" />
            <mxPoint x="230" y="340" as="targetPoint" />
          </mxGeometry>
        </mxCell>
        <mxCell id="OE_oYDEdKzhmFktJ1rzD-48" value="규칙 1. 연관 관계(실선 화살표)는&lt;br&gt;&amp;nbsp; &amp;nbsp;액터 -&amp;gt; 유스케이스&lt;br&gt;&amp;nbsp; &amp;nbsp;유스케이스 -&amp;gt; 액터&lt;br&gt;&amp;nbsp; &amp;nbsp; 위 형식만 가능하다." style="text;html=1;align=center;verticalAlign=middle;resizable=0;points=[];autosize=1;strokeColor=none;fillColor=none;" vertex="1" parent="1">
          <mxGeometry x="375" y="9" width="200" height="70" as="geometry" />
        </mxCell>
        <mxCell id="OE_oYDEdKzhmFktJ1rzD-49" value="Actor" style="shape=umlActor;verticalLabelPosition=bottom;verticalAlign=top;html=1;" vertex="1" parent="1">
          <mxGeometry x="405" y="104" width="30" height="60" as="geometry" />
        </mxCell>
        <mxCell id="OE_oYDEdKzhmFktJ1rzD-50" value="Use Case" style="ellipse;whiteSpace=wrap;html=1;" vertex="1" parent="1">
          <mxGeometry x="525" y="99" width="140" height="70" as="geometry" />
        </mxCell>
        <mxCell id="OE_oYDEdKzhmFktJ1rzD-51" value="" style="endArrow=open;endFill=1;endSize=12;html=1;rounded=0;" edge="1" parent="1" source="OE_oYDEdKzhmFktJ1rzD-49" target="OE_oYDEdKzhmFktJ1rzD-50">
          <mxGeometry width="160" relative="1" as="geometry">
            <mxPoint x="495" y="179" as="sourcePoint" />
            <mxPoint x="555" y="134" as="targetPoint" />
          </mxGeometry>
        </mxCell>
        <mxCell id="OE_oYDEdKzhmFktJ1rzD-52" value="Use Case" style="ellipse;whiteSpace=wrap;html=1;" vertex="1" parent="1">
          <mxGeometry x="350" y="219" width="140" height="70" as="geometry" />
        </mxCell>
        <mxCell id="OE_oYDEdKzhmFktJ1rzD-53" value="Actor" style="shape=umlActor;verticalLabelPosition=bottom;verticalAlign=top;html=1;" vertex="1" parent="1">
          <mxGeometry x="580" y="224" width="30" height="60" as="geometry" />
        </mxCell>
        <mxCell id="OE_oYDEdKzhmFktJ1rzD-54" value="" style="endArrow=open;endFill=1;endSize=12;html=1;rounded=0;" edge="1" parent="1" source="OE_oYDEdKzhmFktJ1rzD-52" target="OE_oYDEdKzhmFktJ1rzD-53">
          <mxGeometry width="160" relative="1" as="geometry">
            <mxPoint x="505" y="254" as="sourcePoint" />
            <mxPoint x="546.6700000000001" y="284" as="targetPoint" />
          </mxGeometry>
        </mxCell>
        <mxCell id="OE_oYDEdKzhmFktJ1rzD-56" value="규칙 2. 포함, 확장 관계는&lt;br&gt;&lt;span style=&quot;white-space: pre;&quot;&gt;&#x9;&lt;/span&gt;&lt;span style=&quot;white-space: pre;&quot;&gt;&#x9;&lt;/span&gt;&lt;span style=&quot;white-space: pre;&quot;&gt;&#x9;&lt;/span&gt;&amp;nbsp; &amp;nbsp; &amp;nbsp;유스케이스끼리만 가능하다." style="text;html=1;align=center;verticalAlign=middle;resizable=0;points=[];autosize=1;strokeColor=none;fillColor=none;" vertex="1" parent="1">
          <mxGeometry x="290" y="350" width="270" height="40" as="geometry" />
        </mxCell>
        <mxCell id="OE_oYDEdKzhmFktJ1rzD-57" value="내 정보 조회" style="ellipse;whiteSpace=wrap;html=1;" vertex="1" parent="1">
          <mxGeometry x="350" y="410" width="140" height="70" as="geometry" />
        </mxCell>
        <mxCell id="OE_oYDEdKzhmFktJ1rzD-58" value="로그인" style="ellipse;whiteSpace=wrap;html=1;" vertex="1" parent="1">
          <mxGeometry x="595" y="410" width="140" height="70" as="geometry" />
        </mxCell>
        <mxCell id="OE_oYDEdKzhmFktJ1rzD-59" value="&amp;lt;&amp;lt; include &amp;gt;&amp;gt;" style="endArrow=open;endSize=12;dashed=1;html=1;rounded=0;" edge="1" parent="1" source="OE_oYDEdKzhmFktJ1rzD-57" target="OE_oYDEdKzhmFktJ1rzD-58">
          <mxGeometry y="10" width="160" relative="1" as="geometry">
            <mxPoint x="495" y="444.5" as="sourcePoint" />
            <mxPoint x="655" y="444.5" as="targetPoint" />
            <mxPoint as="offset" />
          </mxGeometry>
        </mxCell>
        <mxCell id="OE_oYDEdKzhmFktJ1rzD-60" value="회원 가입" style="ellipse;whiteSpace=wrap;html=1;" vertex="1" parent="1">
          <mxGeometry x="350" y="494" width="140" height="70" as="geometry" />
        </mxCell>
        <mxCell id="OE_oYDEdKzhmFktJ1rzD-61" value="프로필 사진 등록" style="ellipse;whiteSpace=wrap;html=1;" vertex="1" parent="1">
          <mxGeometry x="595" y="494" width="140" height="70" as="geometry" />
        </mxCell>
        <mxCell id="OE_oYDEdKzhmFktJ1rzD-63" value="&amp;lt;&amp;lt; extend &amp;gt;&amp;gt;" style="endArrow=open;endSize=12;dashed=1;html=1;rounded=0;" edge="1" parent="1" source="OE_oYDEdKzhmFktJ1rzD-61" target="OE_oYDEdKzhmFktJ1rzD-60">
          <mxGeometry y="10" width="160" relative="1" as="geometry">
            <mxPoint x="490" y="528.5" as="sourcePoint" />
            <mxPoint x="545" y="574" as="targetPoint" />
            <mxPoint as="offset" />
          </mxGeometry>
        </mxCell>
        <mxCell id="OE_oYDEdKzhmFktJ1rzD-64" value="규칙 3. 일반화 관계는&lt;br&gt;&lt;span style=&quot;white-space: pre;&quot;&gt;&#x9;&lt;/span&gt;&lt;span style=&quot;white-space: pre;&quot;&gt;&#x9;&lt;/span&gt;&lt;span style=&quot;white-space: pre;&quot;&gt;&#x9;&lt;/span&gt;&lt;span style=&quot;white-space: pre;&quot;&gt;&#x9;&lt;/span&gt;&lt;span style=&quot;white-space: pre;&quot;&gt;&#x9;&lt;/span&gt;&lt;span style=&quot;white-space: pre;&quot;&gt;&#x9;&lt;/span&gt;&lt;span style=&quot;white-space: pre;&quot;&gt;&#x9;&lt;/span&gt;&amp;nbsp; &amp;nbsp;액터끼리 또는 유스케이스끼리만 가능하다." style="text;html=1;align=center;verticalAlign=middle;resizable=0;points=[];autosize=1;strokeColor=none;fillColor=none;" vertex="1" parent="1">
          <mxGeometry x="190" y="600" width="450" height="40" as="geometry" />
        </mxCell>
        <mxCell id="OE_oYDEdKzhmFktJ1rzD-67" value="제목 검색" style="ellipse;whiteSpace=wrap;html=1;" vertex="1" parent="1">
          <mxGeometry x="365" y="660" width="140" height="70" as="geometry" />
        </mxCell>
        <mxCell id="OE_oYDEdKzhmFktJ1rzD-68" value="내용 검색" style="ellipse;whiteSpace=wrap;html=1;" vertex="1" parent="1">
          <mxGeometry x="365" y="760" width="140" height="70" as="geometry" />
        </mxCell>
        <mxCell id="OE_oYDEdKzhmFktJ1rzD-69" value="게시글 검색" style="ellipse;whiteSpace=wrap;html=1;" vertex="1" parent="1">
          <mxGeometry x="610" y="710" width="140" height="70" as="geometry" />
        </mxCell>
        <mxCell id="OE_oYDEdKzhmFktJ1rzD-70" value="" style="endArrow=block;endSize=16;endFill=0;html=1;rounded=0;" edge="1" parent="1" source="OE_oYDEdKzhmFktJ1rzD-67" target="OE_oYDEdKzhmFktJ1rzD-69">
          <mxGeometry width="160" relative="1" as="geometry">
            <mxPoint x="505" y="694.5" as="sourcePoint" />
            <mxPoint x="665" y="694.5" as="targetPoint" />
          </mxGeometry>
        </mxCell>
        <mxCell id="OE_oYDEdKzhmFktJ1rzD-71" value="" style="endArrow=block;endSize=16;endFill=0;html=1;rounded=0;" edge="1" parent="1" source="OE_oYDEdKzhmFktJ1rzD-68" target="OE_oYDEdKzhmFktJ1rzD-69">
          <mxGeometry width="160" relative="1" as="geometry">
            <mxPoint x="515" y="790" as="sourcePoint" />
            <mxPoint x="630" y="814" as="targetPoint" />
          </mxGeometry>
        </mxCell>
        <mxCell id="OE_oYDEdKzhmFktJ1rzD-74" value="회원" style="shape=umlActor;verticalLabelPosition=bottom;verticalAlign=top;html=1;" vertex="1" parent="1">
          <mxGeometry x="375" y="890" width="30" height="60" as="geometry" />
        </mxCell>
        <mxCell id="OE_oYDEdKzhmFktJ1rzD-75" value="비회원" style="shape=umlActor;verticalLabelPosition=bottom;verticalAlign=top;html=1;" vertex="1" parent="1">
          <mxGeometry x="375" y="1080" width="30" height="60" as="geometry" />
        </mxCell>
        <mxCell id="OE_oYDEdKzhmFktJ1rzD-76" value="사용자" style="shape=umlActor;verticalLabelPosition=bottom;verticalAlign=top;html=1;" vertex="1" parent="1">
          <mxGeometry x="525" y="970" width="30" height="60" as="geometry" />
        </mxCell>
        <mxCell id="OE_oYDEdKzhmFktJ1rzD-81" value="" style="endArrow=block;endSize=16;endFill=0;html=1;rounded=0;" edge="1" parent="1" source="OE_oYDEdKzhmFktJ1rzD-74" target="OE_oYDEdKzhmFktJ1rzD-76">
          <mxGeometry width="160" relative="1" as="geometry">
            <mxPoint x="370" y="950" as="sourcePoint" />
            <mxPoint x="575" y="939.5" as="targetPoint" />
          </mxGeometry>
        </mxCell>
        <mxCell id="OE_oYDEdKzhmFktJ1rzD-82" value="" style="endArrow=block;endSize=16;endFill=0;html=1;rounded=0;" edge="1" parent="1" source="OE_oYDEdKzhmFktJ1rzD-75" target="OE_oYDEdKzhmFktJ1rzD-76">
          <mxGeometry width="160" relative="1" as="geometry">
            <mxPoint x="405" y="1080" as="sourcePoint" />
            <mxPoint x="630" y="1142" as="targetPoint" />
          </mxGeometry>
        </mxCell>
        <mxCell id="OE_oYDEdKzhmFktJ1rzD-83" value="공지사항 조회" style="ellipse;whiteSpace=wrap;html=1;" vertex="1" parent="1">
          <mxGeometry x="650" y="965" width="140" height="70" as="geometry" />
        </mxCell>
        <mxCell id="OE_oYDEdKzhmFktJ1rzD-85" value="" style="endArrow=open;endFill=1;endSize=12;html=1;rounded=0;" edge="1" parent="1" source="OE_oYDEdKzhmFktJ1rzD-76" target="OE_oYDEdKzhmFktJ1rzD-83">
          <mxGeometry width="160" relative="1" as="geometry">
            <mxPoint x="660" y="1009.5" as="sourcePoint" />
            <mxPoint x="820" y="1009.5" as="targetPoint" />
          </mxGeometry>
        </mxCell>
        <mxCell id="OE_oYDEdKzhmFktJ1rzD-87" value="비회원" style="shape=umlActor;verticalLabelPosition=bottom;verticalAlign=top;html=1;" vertex="1" parent="1">
          <mxGeometry x="295" y="1250" width="30" height="60" as="geometry" />
        </mxCell>
        <mxCell id="OE_oYDEdKzhmFktJ1rzD-88" value="회원 가입" style="ellipse;whiteSpace=wrap;html=1;" vertex="1" parent="1">
          <mxGeometry x="490" y="1245" width="140" height="70" as="geometry" />
        </mxCell>
        <mxCell id="OE_oYDEdKzhmFktJ1rzD-89" value="" style="endArrow=open;endFill=1;endSize=12;html=1;rounded=0;" edge="1" parent="1" source="OE_oYDEdKzhmFktJ1rzD-87" target="OE_oYDEdKzhmFktJ1rzD-88">
          <mxGeometry width="160" relative="1" as="geometry">
            <mxPoint x="385" y="1279.5" as="sourcePoint" />
            <mxPoint x="480" y="1279.5" as="targetPoint" />
          </mxGeometry>
        </mxCell>
        <mxCell id="OE_oYDEdKzhmFktJ1rzD-90" value="이메일 인증" style="ellipse;whiteSpace=wrap;html=1;" vertex="1" parent="1">
          <mxGeometry x="755" y="1245" width="140" height="70" as="geometry" />
        </mxCell>
        <mxCell id="OE_oYDEdKzhmFktJ1rzD-92" value="&amp;lt;&amp;lt; include &amp;gt;&amp;gt;" style="endArrow=open;endSize=12;dashed=1;html=1;rounded=0;" edge="1" parent="1" source="OE_oYDEdKzhmFktJ1rzD-88" target="OE_oYDEdKzhmFktJ1rzD-90">
          <mxGeometry y="10" width="160" relative="1" as="geometry">
            <mxPoint x="755" y="1210" as="sourcePoint" />
            <mxPoint x="630" y="1210" as="targetPoint" />
            <mxPoint as="offset" />
          </mxGeometry>
        </mxCell>
        <mxCell id="OE_oYDEdKzhmFktJ1rzD-93" value="Gmail 서버" style="shape=umlActor;verticalLabelPosition=bottom;verticalAlign=top;html=1;" vertex="1" parent="1">
          <mxGeometry x="1010" y="1250" width="30" height="60" as="geometry" />
        </mxCell>
        <mxCell id="OE_oYDEdKzhmFktJ1rzD-96" value="" style="endArrow=open;endFill=1;endSize=12;html=1;rounded=0;" edge="1" parent="1" source="OE_oYDEdKzhmFktJ1rzD-90" target="OE_oYDEdKzhmFktJ1rzD-93">
          <mxGeometry width="160" relative="1" as="geometry">
            <mxPoint x="910" y="1390" as="sourcePoint" />
            <mxPoint x="1005" y="1390" as="targetPoint" />
          </mxGeometry>
        </mxCell>
        <mxCell id="OE_oYDEdKzhmFktJ1rzD-97" value="프로필 사진 등록" style="ellipse;whiteSpace=wrap;html=1;" vertex="1" parent="1">
          <mxGeometry x="750" y="1360" width="140" height="70" as="geometry" />
        </mxCell>
        <mxCell id="OE_oYDEdKzhmFktJ1rzD-98" value="&amp;lt;&amp;lt; extend &amp;gt;&amp;gt;" style="endArrow=open;endSize=12;dashed=1;html=1;rounded=0;" edge="1" parent="1" source="OE_oYDEdKzhmFktJ1rzD-97" target="OE_oYDEdKzhmFktJ1rzD-88">
          <mxGeometry y="10" width="160" relative="1" as="geometry">
            <mxPoint x="745" y="1364.5" as="sourcePoint" />
            <mxPoint x="640" y="1364.5" as="targetPoint" />
            <mxPoint as="offset" />
          </mxGeometry>
        </mxCell>
        <mxCell id="OE_oYDEdKzhmFktJ1rzD-99" value="회원" style="shape=umlActor;verticalLabelPosition=bottom;verticalAlign=top;html=1;" vertex="1" parent="1">
          <mxGeometry x="295" y="1580" width="30" height="60" as="geometry" />
        </mxCell>
        <mxCell id="OE_oYDEdKzhmFktJ1rzD-101" value="사용자" style="shape=umlActor;verticalLabelPosition=bottom;verticalAlign=top;html=1;" vertex="1" parent="1">
          <mxGeometry x="460" y="1420" width="30" height="60" as="geometry" />
        </mxCell>
        <mxCell id="OE_oYDEdKzhmFktJ1rzD-102" value="" style="endArrow=block;endSize=16;endFill=0;html=1;rounded=0;" edge="1" parent="1" source="OE_oYDEdKzhmFktJ1rzD-87" target="OE_oYDEdKzhmFktJ1rzD-101">
          <mxGeometry width="160" relative="1" as="geometry">
            <mxPoint x="340" y="1296" as="sourcePoint" />
            <mxPoint x="460" y="1360" as="targetPoint" />
          </mxGeometry>
        </mxCell>
        <mxCell id="OE_oYDEdKzhmFktJ1rzD-103" value="" style="endArrow=block;endSize=16;endFill=0;html=1;rounded=0;" edge="1" parent="1" source="OE_oYDEdKzhmFktJ1rzD-99" target="OE_oYDEdKzhmFktJ1rzD-101">
          <mxGeometry width="160" relative="1" as="geometry">
            <mxPoint x="335" y="1530" as="sourcePoint" />
            <mxPoint x="445" y="1640" as="targetPoint" />
          </mxGeometry>
        </mxCell>
        <mxCell id="OE_oYDEdKzhmFktJ1rzD-105" value="공지사항 조회" style="ellipse;whiteSpace=wrap;html=1;" vertex="1" parent="1">
          <mxGeometry x="575" y="1415" width="140" height="70" as="geometry" />
        </mxCell>
        <mxCell id="OE_oYDEdKzhmFktJ1rzD-106" value="" style="endArrow=open;endFill=1;endSize=12;html=1;rounded=0;" edge="1" parent="1" source="OE_oYDEdKzhmFktJ1rzD-101" target="OE_oYDEdKzhmFktJ1rzD-105">
          <mxGeometry width="160" relative="1" as="geometry">
            <mxPoint x="502" y="1469.5" as="sourcePoint" />
            <mxPoint x="667" y="1469.5" as="targetPoint" />
          </mxGeometry>
        </mxCell>
        <mxCell id="OE_oYDEdKzhmFktJ1rzD-107" value="관리자" style="shape=umlActor;verticalLabelPosition=bottom;verticalAlign=top;html=1;" vertex="1" parent="1">
          <mxGeometry x="295" y="1420" width="30" height="60" as="geometry" />
        </mxCell>
        <mxCell id="OE_oYDEdKzhmFktJ1rzD-108" value="" style="endArrow=block;endSize=16;endFill=0;html=1;rounded=0;" edge="1" parent="1" source="OE_oYDEdKzhmFktJ1rzD-107" target="OE_oYDEdKzhmFktJ1rzD-101">
          <mxGeometry width="160" relative="1" as="geometry">
            <mxPoint x="310" y="1450" as="sourcePoint" />
            <mxPoint x="420" y="1470" as="targetPoint" />
          </mxGeometry>
        </mxCell>
        <mxCell id="OE_oYDEdKzhmFktJ1rzD-109" value="마이페이지" style="ellipse;whiteSpace=wrap;html=1;" vertex="1" parent="1">
          <mxGeometry x="460" y="1575" width="140" height="70" as="geometry" />
        </mxCell>
        <mxCell id="OE_oYDEdKzhmFktJ1rzD-110" value="" style="endArrow=open;endFill=1;endSize=12;html=1;rounded=0;" edge="1" parent="1" source="OE_oYDEdKzhmFktJ1rzD-99" target="OE_oYDEdKzhmFktJ1rzD-109">
          <mxGeometry width="160" relative="1" as="geometry">
            <mxPoint x="350" y="1620" as="sourcePoint" />
            <mxPoint x="455" y="1620" as="targetPoint" />
          </mxGeometry>
        </mxCell>
        <mxCell id="OE_oYDEdKzhmFktJ1rzD-111" value="내 정보 조회" style="ellipse;whiteSpace=wrap;html=1;" vertex="1" parent="1">
          <mxGeometry x="770" y="1495" width="140" height="70" as="geometry" />
        </mxCell>
        <mxCell id="OE_oYDEdKzhmFktJ1rzD-112" value="내가 좋아요 누른&lt;br&gt;게시글 조회" style="ellipse;whiteSpace=wrap;html=1;" vertex="1" parent="1">
          <mxGeometry x="770" y="1575" width="140" height="70" as="geometry" />
        </mxCell>
        <mxCell id="OE_oYDEdKzhmFktJ1rzD-113" value="회원 탈퇴" style="ellipse;whiteSpace=wrap;html=1;" vertex="1" parent="1">
          <mxGeometry x="770" y="1655" width="140" height="70" as="geometry" />
        </mxCell>
        <mxCell id="OE_oYDEdKzhmFktJ1rzD-116" value="&amp;lt;&amp;lt; extend &amp;gt;&amp;gt;" style="endArrow=open;endSize=12;dashed=1;html=1;rounded=0;" edge="1" parent="1" source="OE_oYDEdKzhmFktJ1rzD-111" target="OE_oYDEdKzhmFktJ1rzD-109">
          <mxGeometry y="10" width="160" relative="1" as="geometry">
            <mxPoint x="750" y="1669.5" as="sourcePoint" />
            <mxPoint x="595" y="1600.5" as="targetPoint" />
            <mxPoint as="offset" />
          </mxGeometry>
        </mxCell>
        <mxCell id="OE_oYDEdKzhmFktJ1rzD-117" value="&amp;lt;&amp;lt; extend &amp;gt;&amp;gt;" style="endArrow=open;endSize=12;dashed=1;html=1;rounded=0;" edge="1" parent="1" source="OE_oYDEdKzhmFktJ1rzD-113" target="OE_oYDEdKzhmFktJ1rzD-109">
          <mxGeometry y="10" width="160" relative="1" as="geometry">
            <mxPoint x="656" y="1680" as="sourcePoint" />
            <mxPoint x="575" y="1702" as="targetPoint" />
            <mxPoint as="offset" />
          </mxGeometry>
        </mxCell>
        <mxCell id="OE_oYDEdKzhmFktJ1rzD-118" value="&amp;lt;&amp;lt; extend &amp;gt;&amp;gt;" style="endArrow=open;endSize=12;dashed=1;html=1;rounded=0;" edge="1" parent="1" source="OE_oYDEdKzhmFktJ1rzD-112" target="OE_oYDEdKzhmFktJ1rzD-109">
          <mxGeometry y="10" width="160" relative="1" as="geometry">
            <mxPoint x="707" y="1670" as="sourcePoint" />
            <mxPoint x="600" y="1615" as="targetPoint" />
            <mxPoint as="offset" />
          </mxGeometry>
        </mxCell>
        <mxCell id="OE_oYDEdKzhmFktJ1rzD-120" value="자유게시판 목록 조회" style="ellipse;whiteSpace=wrap;html=1;" vertex="1" parent="1">
          <mxGeometry x="460" y="1690" width="140" height="70" as="geometry" />
        </mxCell>
        <mxCell id="OE_oYDEdKzhmFktJ1rzD-121" value="자유게시판 상세 조회" style="ellipse;whiteSpace=wrap;html=1;" vertex="1" parent="1">
          <mxGeometry x="460" y="1820" width="140" height="70" as="geometry" />
        </mxCell>
        <mxCell id="OE_oYDEdKzhmFktJ1rzD-122" value="자유게시판 글 작성" style="ellipse;whiteSpace=wrap;html=1;" vertex="1" parent="1">
          <mxGeometry x="460" y="1970" width="140" height="70" as="geometry" />
        </mxCell>
        <mxCell id="OE_oYDEdKzhmFktJ1rzD-123" value="" style="endArrow=open;endFill=1;endSize=12;html=1;rounded=0;" edge="1" parent="1" source="OE_oYDEdKzhmFktJ1rzD-99" target="OE_oYDEdKzhmFktJ1rzD-120">
          <mxGeometry width="160" relative="1" as="geometry">
            <mxPoint x="295" y="1700" as="sourcePoint" />
            <mxPoint x="430" y="1700" as="targetPoint" />
          </mxGeometry>
        </mxCell>
        <mxCell id="OE_oYDEdKzhmFktJ1rzD-124" value="" style="endArrow=open;endFill=1;endSize=12;html=1;rounded=0;" edge="1" parent="1" source="OE_oYDEdKzhmFktJ1rzD-99" target="OE_oYDEdKzhmFktJ1rzD-121">
          <mxGeometry width="160" relative="1" as="geometry">
            <mxPoint x="303" y="1710" as="sourcePoint" />
            <mxPoint x="460" y="1792" as="targetPoint" />
          </mxGeometry>
        </mxCell>
        <mxCell id="OE_oYDEdKzhmFktJ1rzD-125" value="" style="endArrow=open;endFill=1;endSize=12;html=1;rounded=0;" edge="1" parent="1" source="OE_oYDEdKzhmFktJ1rzD-99" target="OE_oYDEdKzhmFktJ1rzD-122">
          <mxGeometry width="160" relative="1" as="geometry">
            <mxPoint x="254.45999999999998" y="1670.0036363636366" as="sourcePoint" />
            <mxPoint x="435.00322855303665" y="1912.095692832481" as="targetPoint" />
          </mxGeometry>
        </mxCell>
        <mxCell id="OE_oYDEdKzhmFktJ1rzD-128" value="게시글 수정" style="ellipse;whiteSpace=wrap;html=1;" vertex="1" parent="1">
          <mxGeometry x="680" y="1760" width="140" height="70" as="geometry" />
        </mxCell>
        <mxCell id="OE_oYDEdKzhmFktJ1rzD-129" value="게시글 삭제" style="ellipse;whiteSpace=wrap;html=1;" vertex="1" parent="1">
          <mxGeometry x="680" y="1880" width="140" height="70" as="geometry" />
        </mxCell>
        <mxCell id="OE_oYDEdKzhmFktJ1rzD-130" value="&amp;lt;&amp;lt; extend &amp;gt;&amp;gt;" style="endArrow=open;endSize=12;dashed=1;html=1;rounded=0;" edge="1" parent="1" source="OE_oYDEdKzhmFktJ1rzD-129" target="OE_oYDEdKzhmFktJ1rzD-121">
          <mxGeometry y="10" width="160" relative="1" as="geometry">
            <mxPoint x="687.4784924700468" y="1913.5974758458" as="sourcePoint" />
            <mxPoint x="600" y="1856.4" as="targetPoint" />
            <mxPoint as="offset" />
          </mxGeometry>
        </mxCell>
        <mxCell id="OE_oYDEdKzhmFktJ1rzD-131" value="&amp;lt;&amp;lt; extend &amp;gt;&amp;gt;" style="endArrow=open;endSize=12;dashed=1;html=1;rounded=0;" edge="1" parent="1" source="OE_oYDEdKzhmFktJ1rzD-128" target="OE_oYDEdKzhmFktJ1rzD-121">
          <mxGeometry y="10" width="160" relative="1" as="geometry">
            <mxPoint x="714" y="1864" as="sourcePoint" />
            <mxPoint x="595" y="1830" as="targetPoint" />
            <mxPoint as="offset" />
          </mxGeometry>
        </mxCell>
        <mxCell id="OE_oYDEdKzhmFktJ1rzD-132" value="로그인" style="ellipse;whiteSpace=wrap;html=1;" vertex="1" parent="1">
          <mxGeometry x="240" y="1810" width="140" height="70" as="geometry" />
        </mxCell>
        <mxCell id="OE_oYDEdKzhmFktJ1rzD-135" value="" style="endArrow=open;endFill=1;endSize=12;html=1;rounded=0;" edge="1" parent="1" source="OE_oYDEdKzhmFktJ1rzD-99" target="OE_oYDEdKzhmFktJ1rzD-132">
          <mxGeometry width="160" relative="1" as="geometry">
            <mxPoint x="180" y="1820" as="sourcePoint" />
            <mxPoint x="315" y="1820" as="targetPoint" />
          </mxGeometry>
        </mxCell>
      </root>
    </mxGraphModel>
  </diagram>
</mxfile>
